<svg id="visual" viewBox="0 0 960 300" width="960" height="300" xmlns="http://www.w3.org/2000/svg" xmlns:xlink="http://www.w3.org/1999/xlink" version="1.1"><rect x="0" y="0" width="960" height="300" fill="#1E2329"></rect><path d="M0 180L22.8 183.7C45.7 187.3 91.3 194.7 137 197C182.7 199.3 228.3 196.7 274 194.3C319.7 192 365.3 190 411.2 187.8C457 185.7 503 183.3 548.8 186C594.7 188.7 640.3 196.3 686 196C731.7 195.7 777.3 187.3 823 190.3C868.7 193.3 914.3 207.7 937.2 214.8L960 222L960 301L937.2 301C914.3 301 868.7 301 823 301C777.3 301 731.7 301 686 301C640.3 301 594.7 301 548.8 301C503 301 457 301 411.2 301C365.3 301 319.7 301 274 301C228.3 301 182.7 301 137 301C91.3 301 45.7 301 22.8 301L0 301Z" fill="#1e2329"></path><path d="M0 202L22.8 205.7C45.7 209.3 91.3 216.7 137 221.2C182.7 225.7 228.3 227.3 274 229C319.7 230.7 365.3 232.3 411.2 229.8C457 227.3 503 220.7 548.8 214.8C594.7 209 640.3 204 686 205C731.7 206 777.3 213 823 216.8C868.7 220.7 914.3 221.3 937.2 221.7L960 222L960 301L937.2 301C914.3 301 868.7 301 823 301C777.3 301 731.7 301 686 301C640.3 301 594.7 301 548.8 301C503 301 457 301 411.2 301C365.3 301 319.7 301 274 301C228.3 301 182.7 301 137 301C91.3 301 45.7 301 22.8 301L0 301Z" fill="#2f3e60"></path><path d="M0 250L22.8 246.8C45.7 243.7 91.3 237.3 137 232.8C182.7 228.3 228.3 225.7 274 227C319.7 228.3 365.3 233.7 411.2 237C457 240.3 503 241.7 548.8 239C594.7 236.3 640.3 229.7 686 229.2C731.7 228.7 777.3 234.3 823 236C868.7 237.7 914.3 235.3 937.2 234.2L960 233L960 301L937.2 301C914.3 301 868.7 301 823 301C777.3 301 731.7 301 686 301C640.3 301 594.7 301 548.8 301C503 301 457 301 411.2 301C365.3 301 319.7 301 274 301C228.3 301 182.7 301 137 301C91.3 301 45.7 301 22.8 301L0 301Z" fill="#5e5496"></path><path d="M0 247L22.8 248.2C45.7 249.3 91.3 251.7 137 252.7C182.7 253.7 228.3 253.3 274 252C319.7 250.7 365.3 248.3 411.2 251C457 253.7 503 261.3 548.8 261.2C594.7 261 640.3 253 686 250.8C731.7 248.7 777.3 252.3 823 255.7C868.7 259 914.3 262 937.2 263.5L960 265L960 301L937.2 301C914.3 301 868.7 301 823 301C777.3 301 731.7 301 686 301C640.3 301 594.7 301 548.8 301C503 301 457 301 411.2 301C365.3 301 319.7 301 274 301C228.3 301 182.7 301 137 301C91.3 301 45.7 301 22.8 301L0 301Z" fill="#a761bf"></path><path d="M0 268L22.8 269.2C45.7 270.3 91.3 272.7 137 271.8C182.7 271 228.3 267 274 268.8C319.7 270.7 365.3 278.3 411.2 278.3C457 278.3 503 270.7 548.8 270.7C594.7 270.7 640.3 278.3 686 279.5C731.7 280.7 777.3 275.3 823 273.2C868.7 271 914.3 272 937.2 272.5L960 273L960 301L937.2 301C914.3 301 868.7 301 823 301C777.3 301 731.7 301 686 301C640.3 301 594.7 301 548.8 301C503 301 457 301 411.2 301C365.3 301 319.7 301 274 301C228.3 301 182.7 301 137 301C91.3 301 45.7 301 22.8 301L0 301Z" fill="#FE62D4"></path></svg>