<svg id="visual" viewBox="0 0 960 300" width="960" height="300" xmlns="http://www.w3.org/2000/svg" xmlns:xlink="http://www.w3.org/1999/xlink" version="1.1"><rect x="0" y="0" width="960" height="300" fill="#0066FF"></rect><path d="M0 87L22.8 90.2C45.7 93.3 91.3 99.7 137 104.5C182.7 109.3 228.3 112.7 274 113.7C319.7 114.7 365.3 113.3 411.2 111.7C457 110 503 108 548.8 102.2C594.7 96.3 640.3 86.7 686 86.8C731.7 87 777.3 97 823 100C868.7 103 914.3 99 937.2 97L960 95L960 0L937.2 0C914.3 0 868.7 0 823 0C777.3 0 731.7 0 686 0C640.3 0 594.7 0 548.8 0C503 0 457 0 411.2 0C365.3 0 319.7 0 274 0C228.3 0 182.7 0 137 0C91.3 0 45.7 0 22.8 0L0 0Z" fill="#0066ff"></path><path d="M0 67L22.8 72.5C45.7 78 91.3 89 137 92.5C182.7 96 228.3 92 274 88.3C319.7 84.7 365.3 81.3 411.2 82C457 82.7 503 87.3 548.8 87.7C594.7 88 640.3 84 686 83.8C731.7 83.7 777.3 87.3 823 88.7C868.7 90 914.3 89 937.2 88.5L960 88L960 0L937.2 0C914.3 0 868.7 0 823 0C777.3 0 731.7 0 686 0C640.3 0 594.7 0 548.8 0C503 0 457 0 411.2 0C365.3 0 319.7 0 274 0C228.3 0 182.7 0 137 0C91.3 0 45.7 0 22.8 0L0 0Z" fill="#8362f8"></path><path d="M0 67L22.8 65.7C45.7 64.3 91.3 61.7 137 63.7C182.7 65.7 228.3 72.3 274 74.7C319.7 77 365.3 75 411.2 70.3C457 65.7 503 58.3 548.8 54C594.7 49.7 640.3 48.3 686 51.5C731.7 54.7 777.3 62.3 823 63.3C868.7 64.3 914.3 58.7 937.2 55.8L960 53L960 0L937.2 0C914.3 0 868.7 0 823 0C777.3 0 731.7 0 686 0C640.3 0 594.7 0 548.8 0C503 0 457 0 411.2 0C365.3 0 319.7 0 274 0C228.3 0 182.7 0 137 0C91.3 0 45.7 0 22.8 0L0 0Z" fill="#b85fee"></path><path d="M0 28L22.8 31.8C45.7 35.7 91.3 43.3 137 45C182.7 46.7 228.3 42.3 274 43.3C319.7 44.3 365.3 50.7 411.2 53.7C457 56.7 503 56.3 548.8 53C594.7 49.7 640.3 43.3 686 41C731.7 38.7 777.3 40.3 823 43.7C868.7 47 914.3 52 937.2 54.5L960 57L960 0L937.2 0C914.3 0 868.7 0 823 0C777.3 0 731.7 0 686 0C640.3 0 594.7 0 548.8 0C503 0 457 0 411.2 0C365.3 0 319.7 0 274 0C228.3 0 182.7 0 137 0C91.3 0 45.7 0 22.8 0L0 0Z" fill="#df5ee2"></path><path d="M0 20L22.8 19.7C45.7 19.3 91.3 18.7 137 21C182.7 23.3 228.3 28.7 274 29.7C319.7 30.7 365.3 27.3 411.2 26.5C457 25.7 503 27.3 548.8 27.7C594.7 28 640.3 27 686 27.2C731.7 27.3 777.3 28.7 823 28.7C868.7 28.7 914.3 27.3 937.2 26.7L960 26L960 0L937.2 0C914.3 0 868.7 0 823 0C777.3 0 731.7 0 686 0C640.3 0 594.7 0 548.8 0C503 0 457 0 411.2 0C365.3 0 319.7 0 274 0C228.3 0 182.7 0 137 0C91.3 0 45.7 0 22.8 0L0 0Z" fill="#fe62d4"></path></svg>